<svg width="13" height="13" viewBox="0 0 13 13" fill="none" xmlns="http://www.w3.org/2000/svg">
<path d="M6.5 12.5332C6.10938 12.5332 5.80664 12.4297 5.5918 12.2227C5.38086 12.0156 5.2793 11.7207 5.28711 11.3379C5.28711 11.2949 5.28711 11.2422 5.28711 11.1797C5.29102 11.1172 5.29883 11.0488 5.31055 10.9746L5.58008 7.82227L3.17773 9.52148C2.83008 9.78711 2.4668 9.91992 2.08789 9.91992C1.74805 9.91992 1.4668 9.80664 1.24414 9.58008C1.02539 9.34961 0.916016 9.06055 0.916016 8.71289C0.916016 8.43945 0.986328 8.20117 1.12695 7.99805C1.26758 7.79492 1.4707 7.63672 1.73633 7.52344L4.55469 6.26953L1.73633 5.01562C1.4707 4.90625 1.26758 4.75 1.12695 4.54688C0.986328 4.33984 0.916016 4.09961 0.916016 3.82617C0.916016 3.48242 1.02539 3.19727 1.24414 2.9707C1.4668 2.74023 1.74805 2.625 2.08789 2.625C2.4668 2.625 2.83008 2.75781 3.17773 3.02344L5.58008 4.7168L5.31055 1.56445C5.29883 1.49023 5.29102 1.42188 5.28711 1.35938C5.28711 1.29687 5.28711 1.24609 5.28711 1.20703C5.2793 0.824219 5.38086 0.529297 5.5918 0.322266C5.80664 0.111328 6.10938 0.00585938 6.5 0.00585938C6.89453 0.00585938 7.19727 0.111328 7.4082 0.322266C7.61914 0.529297 7.7207 0.824219 7.71289 1.20703C7.71289 1.24609 7.71094 1.29687 7.70703 1.35938C7.70703 1.42188 7.70117 1.49023 7.68945 1.56445L7.41992 4.7168L9.82227 3.02344C10.166 2.75781 10.5273 2.625 10.9062 2.625C11.25 2.625 11.5312 2.74023 11.75 2.9707C11.9727 3.19727 12.084 3.48242 12.084 3.82617C12.084 4.09961 12.0137 4.33984 11.873 4.54688C11.7324 4.75 11.5293 4.90625 11.2637 5.01562L8.44531 6.26953L11.2637 7.52344C11.5293 7.63672 11.7324 7.79492 11.873 7.99805C12.0137 8.20117 12.084 8.43945 12.084 8.71289C12.084 9.06055 11.9727 9.34961 11.75 9.58008C11.5312 9.80664 11.25 9.91992 10.9062 9.91992C10.5273 9.91992 10.166 9.78711 9.82227 9.52148L7.41992 7.82227L7.68945 10.9746C7.70117 11.0488 7.70703 11.1172 7.70703 11.1797C7.71094 11.2422 7.71289 11.2949 7.71289 11.3379C7.7207 11.7207 7.61914 12.0156 7.4082 12.2227C7.19727 12.4297 6.89453 12.5332 6.5 12.5332Z" fill="#E46470"/>
</svg>
